<?xml version="1.0" encoding="iso-8859-1"?>
<!-- Generator: Adobe Illustrator 17.1.0, SVG Export Plug-In . SVG Version: 6.00 Build 0)  -->
<!DOCTYPE svg PUBLIC "-//W3C//DTD SVG 1.1//EN" "http://www.w3.org/Graphics/SVG/1.1/DTD/svg11.dtd">
<svg version="1.1" id="Capa_1" xmlns="http://www.w3.org/2000/svg" xmlns:xlink="http://www.w3.org/1999/xlink" x="0px" y="0px"
	 viewBox="0 0 433.525 433.525" style="enable-background:new 0 0 433.525 433.525; fill: #54b139" xml:space="preserve">
<g>
	<path d="M216.763,0C123.607,0,47.819,75.787,47.819,168.942c0,54.017,46.724,127.597,74.574,166.648
		c18.22,25.547,38.022,49.893,55.762,68.553c27.933,29.382,35.967,29.382,38.607,29.382c2.527,0,10.217,0,38.049-29.389
		c17.784-18.779,37.605-43.119,55.813-68.537c28.041-39.147,75.082-112.854,75.082-166.657C385.706,75.787,309.918,0,216.763,0z
		 M329.976,168.789c0,62.426-50.787,113.212-113.213,113.212c-62.425,0-113.212-50.786-113.212-113.212
		S154.338,55.576,216.763,55.576C279.188,55.576,329.976,106.363,329.976,168.789z"/>
	<g>
		<polygon points="249.06,163.778 268.938,200.601 257.743,200.426 258.181,187.438 228.135,214.622 256.015,245.02 
			256.556,231.281 275.43,231.281 294.809,199.554 300.034,190.673 276.733,148.812 		"/>
		<path d="M264.136,104.273l-12.013,6.686l-9.819-16.12l-46.449-0.047l-0.446,0.667c-0.064,0.097-1.603,2.4-3.564,5.748
			l-20.667,35.409l27.194,15.858l21.106-36.131l5.675,9.651l-11.32,6.382l38.847,11.521L264.136,104.273z"/>
		<polygon points="171.72,192.815 182.885,199.466 173.567,160.033 133.491,169.791 145.265,176.892 136.16,193.425 
			154.613,225.719 159.674,234.035 207.771,234.366 208.011,202.888 166.167,202.538 		"/>
	</g>
</g>
<g>
</g>
<g>
</g>
<g>
</g>
<g>
</g>
<g>
</g>
<g>
</g>
<g>
</g>
<g>
</g>
<g>
</g>
<g>
</g>
<g>
</g>
<g>
</g>
<g>
</g>
<g>
</g>
<g>
</g>
</svg>
